<mxfile host="app.diagrams.net" modified="2024-06-15T09:23:58.233Z" agent="Mozilla/5.0 (Windows NT 10.0; Win64; x64) AppleWebKit/537.36 (KHTML, like Gecko) Chrome/125.0.0.0 Safari/537.36" etag="bshn6oEYh-FMkbkPyJI7" version="23.1.5" type="device">
  <diagram name="Page-1" id="6rWbTvwoUVnyJYdxGyUC">
    <mxGraphModel dx="1434" dy="780" grid="1" gridSize="10" guides="1" tooltips="1" connect="1" arrows="1" fold="1" page="1" pageScale="1" pageWidth="850" pageHeight="1100" math="0" shadow="0">
      <root>
        <mxCell id="0" />
        <mxCell id="1" parent="0" />
        <mxCell id="-WhRgByp2QwdZfuOMXw0-33" value="" style="edgeStyle=orthogonalEdgeStyle;rounded=0;orthogonalLoop=1;jettySize=auto;html=1;" edge="1" parent="1" source="-WhRgByp2QwdZfuOMXw0-1" target="-WhRgByp2QwdZfuOMXw0-6">
          <mxGeometry relative="1" as="geometry" />
        </mxCell>
        <mxCell id="-WhRgByp2QwdZfuOMXw0-34" value="" style="edgeStyle=orthogonalEdgeStyle;rounded=0;orthogonalLoop=1;jettySize=auto;html=1;" edge="1" parent="1" source="-WhRgByp2QwdZfuOMXw0-1" target="-WhRgByp2QwdZfuOMXw0-6">
          <mxGeometry relative="1" as="geometry" />
        </mxCell>
        <mxCell id="-WhRgByp2QwdZfuOMXw0-1" value="Computer" style="shape=umlActor;verticalLabelPosition=bottom;verticalAlign=top;html=1;outlineConnect=0;" vertex="1" parent="1">
          <mxGeometry x="425" width="30" height="60" as="geometry" />
        </mxCell>
        <mxCell id="-WhRgByp2QwdZfuOMXw0-2" value="" style="endArrow=classic;html=1;rounded=0;" edge="1" parent="1" source="-WhRgByp2QwdZfuOMXw0-6" target="-WhRgByp2QwdZfuOMXw0-3">
          <mxGeometry width="50" height="50" relative="1" as="geometry">
            <mxPoint x="360" y="430" as="sourcePoint" />
            <mxPoint x="500" y="140" as="targetPoint" />
          </mxGeometry>
        </mxCell>
        <mxCell id="-WhRgByp2QwdZfuOMXw0-3" value="" style="rounded=0;whiteSpace=wrap;html=1;fillColor=#dae8fc;strokeColor=#6c8ebf;" vertex="1" parent="1">
          <mxGeometry x="110" y="160" width="930" height="490" as="geometry" />
        </mxCell>
        <mxCell id="-WhRgByp2QwdZfuOMXw0-4" value="Cluster" style="text;html=1;align=center;verticalAlign=middle;whiteSpace=wrap;rounded=0;" vertex="1" parent="1">
          <mxGeometry x="470" y="160" width="60" height="30" as="geometry" />
        </mxCell>
        <mxCell id="-WhRgByp2QwdZfuOMXw0-6" value="kubectl apply" style="text;html=1;align=center;verticalAlign=middle;whiteSpace=wrap;rounded=0;" vertex="1" parent="1">
          <mxGeometry x="470" y="95" width="60" height="30" as="geometry" />
        </mxCell>
        <mxCell id="-WhRgByp2QwdZfuOMXw0-7" value="Host Machine 1" style="rounded=0;whiteSpace=wrap;html=1;fillColor=#fff2cc;strokeColor=#d6b656;" vertex="1" parent="1">
          <mxGeometry x="455" y="200" width="90" height="40" as="geometry" />
        </mxCell>
        <mxCell id="-WhRgByp2QwdZfuOMXw0-8" value="Pod: Blog Frontend" style="rounded=0;whiteSpace=wrap;html=1;fillColor=#fff2cc;strokeColor=#d6b656;" vertex="1" parent="1">
          <mxGeometry x="442.5" y="280" width="115" height="40" as="geometry" />
        </mxCell>
        <mxCell id="-WhRgByp2QwdZfuOMXw0-9" value="Service: Blog Service" style="rounded=0;whiteSpace=wrap;html=1;fillColor=#fff2cc;strokeColor=#d6b656;" vertex="1" parent="1">
          <mxGeometry x="610" y="370" width="130" height="40" as="geometry" />
        </mxCell>
        <mxCell id="-WhRgByp2QwdZfuOMXw0-10" value="Container: Blog App" style="rounded=0;whiteSpace=wrap;html=1;fillColor=#fff2cc;strokeColor=#d6b656;" vertex="1" parent="1">
          <mxGeometry x="442.5" y="370" width="115" height="40" as="geometry" />
        </mxCell>
        <mxCell id="-WhRgByp2QwdZfuOMXw0-11" value="Volume: Persistent Storage" style="rounded=0;whiteSpace=wrap;html=1;fillColor=#fff2cc;strokeColor=#d6b656;" vertex="1" parent="1">
          <mxGeometry x="422.5" y="450" width="155" height="40" as="geometry" />
        </mxCell>
        <mxCell id="-WhRgByp2QwdZfuOMXw0-12" value="" style="endArrow=classic;html=1;rounded=0;exitX=0.5;exitY=1;exitDx=0;exitDy=0;entryX=0.5;entryY=0;entryDx=0;entryDy=0;" edge="1" parent="1" source="-WhRgByp2QwdZfuOMXw0-7" target="-WhRgByp2QwdZfuOMXw0-8">
          <mxGeometry width="50" height="50" relative="1" as="geometry">
            <mxPoint x="490" y="430" as="sourcePoint" />
            <mxPoint x="540" y="380" as="targetPoint" />
          </mxGeometry>
        </mxCell>
        <mxCell id="-WhRgByp2QwdZfuOMXw0-13" value="" style="endArrow=classic;html=1;rounded=0;exitX=0.5;exitY=1;exitDx=0;exitDy=0;entryX=0.5;entryY=0;entryDx=0;entryDy=0;" edge="1" parent="1" source="-WhRgByp2QwdZfuOMXw0-8" target="-WhRgByp2QwdZfuOMXw0-10">
          <mxGeometry width="50" height="50" relative="1" as="geometry">
            <mxPoint x="510" y="250" as="sourcePoint" />
            <mxPoint x="510" y="290" as="targetPoint" />
          </mxGeometry>
        </mxCell>
        <mxCell id="-WhRgByp2QwdZfuOMXw0-14" value="" style="endArrow=classic;html=1;rounded=0;exitX=0.5;exitY=1;exitDx=0;exitDy=0;entryX=0.5;entryY=0;entryDx=0;entryDy=0;" edge="1" parent="1" source="-WhRgByp2QwdZfuOMXw0-10" target="-WhRgByp2QwdZfuOMXw0-11">
          <mxGeometry width="50" height="50" relative="1" as="geometry">
            <mxPoint x="520" y="260" as="sourcePoint" />
            <mxPoint x="520" y="300" as="targetPoint" />
          </mxGeometry>
        </mxCell>
        <mxCell id="-WhRgByp2QwdZfuOMXw0-15" value="" style="endArrow=classic;html=1;rounded=0;exitX=1;exitY=0.5;exitDx=0;exitDy=0;entryX=0.5;entryY=0;entryDx=0;entryDy=0;" edge="1" parent="1" source="-WhRgByp2QwdZfuOMXw0-8" target="-WhRgByp2QwdZfuOMXw0-9">
          <mxGeometry width="50" height="50" relative="1" as="geometry">
            <mxPoint x="577.5" y="359.85" as="sourcePoint" />
            <mxPoint x="812.5" y="310.00151515151526" as="targetPoint" />
            <Array as="points">
              <mxPoint x="660" y="320" />
            </Array>
          </mxGeometry>
        </mxCell>
        <mxCell id="-WhRgByp2QwdZfuOMXw0-16" value="Host Machine 3" style="rounded=0;whiteSpace=wrap;html=1;fillColor=#fff2cc;strokeColor=#d6b656;" vertex="1" parent="1">
          <mxGeometry x="840" y="190" width="90" height="40" as="geometry" />
        </mxCell>
        <mxCell id="-WhRgByp2QwdZfuOMXw0-17" value="Pod: Database" style="rounded=0;whiteSpace=wrap;html=1;fillColor=#fff2cc;strokeColor=#d6b656;" vertex="1" parent="1">
          <mxGeometry x="840" y="280" width="90" height="40" as="geometry" />
        </mxCell>
        <mxCell id="-WhRgByp2QwdZfuOMXw0-18" value="Container: MySQL" style="rounded=0;whiteSpace=wrap;html=1;fillColor=#fff2cc;strokeColor=#d6b656;" vertex="1" parent="1">
          <mxGeometry x="830" y="370" width="110" height="40" as="geometry" />
        </mxCell>
        <mxCell id="-WhRgByp2QwdZfuOMXw0-19" value="Volume: Database Storage" style="rounded=0;whiteSpace=wrap;html=1;fillColor=#fff2cc;strokeColor=#d6b656;" vertex="1" parent="1">
          <mxGeometry x="810" y="460" width="150" height="40" as="geometry" />
        </mxCell>
        <mxCell id="-WhRgByp2QwdZfuOMXw0-20" value="Internet" style="rounded=0;whiteSpace=wrap;html=1;fillColor=#ffe6cc;strokeColor=#d79b00;" vertex="1" parent="1">
          <mxGeometry x="1080" y="280" width="90" height="50" as="geometry" />
        </mxCell>
        <mxCell id="-WhRgByp2QwdZfuOMXw0-21" value="" style="endArrow=classic;html=1;rounded=0;exitX=0;exitY=0.5;exitDx=0;exitDy=0;entryX=1;entryY=0.5;entryDx=0;entryDy=0;" edge="1" parent="1" source="-WhRgByp2QwdZfuOMXw0-20" target="-WhRgByp2QwdZfuOMXw0-9">
          <mxGeometry width="50" height="50" relative="1" as="geometry">
            <mxPoint x="960" y="330" as="sourcePoint" />
            <mxPoint x="1010" y="280" as="targetPoint" />
          </mxGeometry>
        </mxCell>
        <mxCell id="-WhRgByp2QwdZfuOMXw0-22" value="HTTP Request" style="edgeLabel;html=1;align=center;verticalAlign=middle;resizable=0;points=[];" vertex="1" connectable="0" parent="-WhRgByp2QwdZfuOMXw0-21">
          <mxGeometry x="-0.0923" y="1" relative="1" as="geometry">
            <mxPoint x="54" y="-15" as="offset" />
          </mxGeometry>
        </mxCell>
        <mxCell id="-WhRgByp2QwdZfuOMXw0-23" value="" style="endArrow=classic;html=1;rounded=0;exitX=0.5;exitY=1;exitDx=0;exitDy=0;entryX=0.5;entryY=0;entryDx=0;entryDy=0;" edge="1" parent="1" source="-WhRgByp2QwdZfuOMXw0-16" target="-WhRgByp2QwdZfuOMXw0-17">
          <mxGeometry width="50" height="50" relative="1" as="geometry">
            <mxPoint x="890" y="330" as="sourcePoint" />
            <mxPoint x="940" y="280" as="targetPoint" />
          </mxGeometry>
        </mxCell>
        <mxCell id="-WhRgByp2QwdZfuOMXw0-24" value="" style="endArrow=classic;html=1;rounded=0;entryX=0.5;entryY=0;entryDx=0;entryDy=0;exitX=0.5;exitY=1;exitDx=0;exitDy=0;" edge="1" parent="1" source="-WhRgByp2QwdZfuOMXw0-17" target="-WhRgByp2QwdZfuOMXw0-18">
          <mxGeometry width="50" height="50" relative="1" as="geometry">
            <mxPoint x="890" y="330" as="sourcePoint" />
            <mxPoint x="940" y="280" as="targetPoint" />
          </mxGeometry>
        </mxCell>
        <mxCell id="-WhRgByp2QwdZfuOMXw0-25" value="" style="endArrow=classic;html=1;rounded=0;exitX=0.5;exitY=1;exitDx=0;exitDy=0;entryX=0.5;entryY=0;entryDx=0;entryDy=0;" edge="1" parent="1" source="-WhRgByp2QwdZfuOMXw0-18" target="-WhRgByp2QwdZfuOMXw0-19">
          <mxGeometry width="50" height="50" relative="1" as="geometry">
            <mxPoint x="890" y="330" as="sourcePoint" />
            <mxPoint x="940" y="280" as="targetPoint" />
          </mxGeometry>
        </mxCell>
        <mxCell id="-WhRgByp2QwdZfuOMXw0-26" value="Host Machine 3" style="rounded=0;whiteSpace=wrap;html=1;fillColor=#fff2cc;strokeColor=#d6b656;" vertex="1" parent="1">
          <mxGeometry x="210" y="240" width="90" height="40" as="geometry" />
        </mxCell>
        <mxCell id="-WhRgByp2QwdZfuOMXw0-27" value="Pod: Blog Backend" style="rounded=0;whiteSpace=wrap;html=1;fillColor=#fff2cc;strokeColor=#d6b656;" vertex="1" parent="1">
          <mxGeometry x="190" y="340" width="130" height="40" as="geometry" />
        </mxCell>
        <mxCell id="-WhRgByp2QwdZfuOMXw0-28" value="Container: API Server" style="rounded=0;whiteSpace=wrap;html=1;fillColor=#fff2cc;strokeColor=#d6b656;" vertex="1" parent="1">
          <mxGeometry x="120" y="440" width="130" height="40" as="geometry" />
        </mxCell>
        <mxCell id="-WhRgByp2QwdZfuOMXw0-29" value="Service: API Service" style="rounded=0;whiteSpace=wrap;html=1;fillColor=#fff2cc;strokeColor=#d6b656;" vertex="1" parent="1">
          <mxGeometry x="290" y="440" width="120" height="40" as="geometry" />
        </mxCell>
        <mxCell id="-WhRgByp2QwdZfuOMXw0-30" value="" style="endArrow=classic;html=1;rounded=0;exitX=0.5;exitY=1;exitDx=0;exitDy=0;entryX=0.5;entryY=0;entryDx=0;entryDy=0;" edge="1" parent="1" source="-WhRgByp2QwdZfuOMXw0-26" target="-WhRgByp2QwdZfuOMXw0-27">
          <mxGeometry width="50" height="50" relative="1" as="geometry">
            <mxPoint x="310" y="330" as="sourcePoint" />
            <mxPoint x="360" y="280" as="targetPoint" />
          </mxGeometry>
        </mxCell>
        <mxCell id="-WhRgByp2QwdZfuOMXw0-31" value="" style="endArrow=classic;html=1;rounded=0;exitX=0.25;exitY=1;exitDx=0;exitDy=0;entryX=0.5;entryY=0;entryDx=0;entryDy=0;" edge="1" parent="1" source="-WhRgByp2QwdZfuOMXw0-27" target="-WhRgByp2QwdZfuOMXw0-28">
          <mxGeometry width="50" height="50" relative="1" as="geometry">
            <mxPoint x="310" y="330" as="sourcePoint" />
            <mxPoint x="360" y="280" as="targetPoint" />
          </mxGeometry>
        </mxCell>
        <mxCell id="-WhRgByp2QwdZfuOMXw0-32" value="" style="endArrow=classic;html=1;rounded=0;exitX=0.75;exitY=1;exitDx=0;exitDy=0;entryX=0.5;entryY=0;entryDx=0;entryDy=0;" edge="1" parent="1" source="-WhRgByp2QwdZfuOMXw0-27" target="-WhRgByp2QwdZfuOMXw0-29">
          <mxGeometry width="50" height="50" relative="1" as="geometry">
            <mxPoint x="310" y="330" as="sourcePoint" />
            <mxPoint x="360" y="280" as="targetPoint" />
          </mxGeometry>
        </mxCell>
      </root>
    </mxGraphModel>
  </diagram>
</mxfile>
